<?xml version="1.0" encoding="utf-8"?>
<!-- Generator: Adobe Illustrator 27.0.0, SVG Export Plug-In . SVG Version: 6.00 Build 0)  -->
<svg version="1.1" id="Layer_1" xmlns="http://www.w3.org/2000/svg" xmlns:xlink="http://www.w3.org/1999/xlink" x="0px" y="0px"
	 viewBox="0 0 1046.4 308.1" style="enable-background:new 0 0 1046.4 308.1;" xml:space="preserve">
<style type="text/css">
	.st0{fill:url(#SVGID_1_);}
	.st1{fill:url(#SVGID_00000002360172377494817060000017604188665289826192_);}
	.st2{fill:#140D1B;}
	.st3{fill:url(#SVGID_00000011751226642793689100000018034431984841441174_);}
	.st4{fill:url(#SVGID_00000038373127484325954960000008722196282966517690_);}
	.st5{clip-path:url(#SVGID_00000050623684441398415660000009616222117626619807_);}
	.st6{clip-path:url(#SVGID_00000152942617201315357000000004190025838348520090_);}
</style>
<g id="Group_13837_00000003100965090340714600000016183461885035331243_" transform="translate(0 0)">
	<g>
		<defs>
			<rect id="SVGID_00000127023429523564802930000002539365647338141883_" width="1046.4" height="308.1"/>
		</defs>
		<clipPath id="SVGID_00000131339685873095844380000000831599228739078835_">
			<use xlink:href="#SVGID_00000127023429523564802930000002539365647338141883_"  style="overflow:visible;"/>
		</clipPath>
		
			<g id="Group_13836_00000059274863571776537700000008831788299397597065_" transform="translate(0 0)" style="clip-path:url(#SVGID_00000131339685873095844380000000831599228739078835_);">
			<path id="Path_5351_00000168087263291136273540000012080359428450024355_" class="st2" d="M412.4,6.2H307.6V283h63.3v-87h41.5
				c52.4,1,95.7-40.7,96.8-93.1S468.5,7.2,416.1,6.2C414.9,6.2,413.6,6.2,412.4,6.2 M412.4,136.7h-41.5V65.5h41.5
				c18.7,0.1,33.8,15.3,33.7,34c0,0.5,0,1.1,0,1.6c1,18.7-13.4,34.6-32,35.5C413.5,136.7,412.9,136.7,412.4,136.7"/>
			<path id="Path_5352_00000019670718266451821260000015395078112507275182_" class="st2" d="M663.4,0.6
				c-78.8-0.7-143.3,62.7-144,141.6c0,0.8,0,1.6,0,2.4c0,79.5,64.4,144,143.9,144c79.5,0,144-64.4,144-143.9c0,0,0-0.1,0-0.1
				C808,65.7,744.7,1.3,665.8,0.6C665,0.6,664.2,0.6,663.4,0.6 M663.4,226.8c-43.5,1.1-79.6-33.2-80.7-76.7c0-1.9,0-3.7,0.1-5.6
				c-0.8-44.6,34.7-81.3,79.2-82.1s81.3,34.7,82.1,79.2c0,1,0,2,0,2.9c2,43.4-31.7,80.3-75.1,82.2
				C667.1,226.9,665.3,226.9,663.4,226.8"/>
			<path id="Path_5353_00000183958747991127938790000007082037847622415508_" class="st2" d="M983.1,0v150.3L876.3,0h-47.5v276.8
				h63.3V126.6l106.8,150.3h47.5V0H983.1z"/>
			<path id="Path_5354_00000094583276725437063120000010762281383375574922_" class="st2" d="M144,0C65.1-0.7,0.7,62.7,0,141.6
				c0,0.8,0,1.6,0,2.4c-0.2,30.5,9.4,60.3,27.3,85.1c-15.5,23.5-23.8,51-23.7,79.1h62c0.1-45.3,36.8-82.1,82.1-82.1v-62
				c-26.3,0-52.2,7.2-74.7,20.9c-6.5-12.6-9.9-26.7-9.7-41c-2-43.4,31.7-80.3,75.1-82.2c1.9-0.1,3.7-0.1,5.6-0.1
				c43.5-1.1,79.6,33.2,80.7,76.7c0,1.9,0,3.7-0.1,5.6c2,43.3-31.5,80-74.9,82c-0.7,0-1.4,0.1-2.1,0.1v61.8
				c78.3-1.3,140.9-65.5,140.3-143.9C288.6,65.1,225.2,0.7,146.4,0C145.6,0,144.8,0,144,0"/>
		</g>
	</g>
</g>
</svg>
